<svg xmlns="http://www.w3.org/2000/svg" viewBox="0 0 191.43 200"><defs><style>.cls-1,.cls-2{fill:#262424;}.cls-1{fill-rule:evenodd;}</style></defs><g id="Layer_2" data-name="Layer 2"><g id="Layer_1-2" data-name="Layer 1"><path class="cls-1" d="M138.62,19.83c-3.4-3.94-8.14-6.35-12.28-9.43-3.4-2.71-7.88-.85-11.55.4-2.3,2.74-1.81,6.05,2,6.63A22.37,22.37,0,0,1,121,16.26c-.06-1.35.8-1.64,2.22-1.57,2.52,2.35,4.93,4.84,5,8.52-2.79-.57-5-.88-6.45,2.18-4.63-.75-7.68.36-10.78,4l-.72-.87a9.9,9.9,0,0,1-2.6-.37c.18-1.15.09-2.21,1.2-2.86a18.29,18.29,0,0,0,.69-4.3l-.38-.59h-.4a7,7,0,0,0-13.37-4.19A50.15,50.15,0,0,0,96.05,28l-2.2,1.47c-2.73-3.86-6.44-4-10.74-3.86,0-.09-.15,0-.37.1-1.14-.74-3-1.29-6-1.52-2.72-1.94-5.81-1.6-9-1.5C65,19.22,62.32,16.15,57.91,15a13,13,0,0,0,1.9-4.34c-.27-.2-.52-.38-.77-.54l1.1-.84,3.8,5,2.37-1.82L65.14,10.9l2.37-1.82-6.9-9L58.24,1.91l3.45,4.5-4.62-6L54.69,2.2l3.81,5L56.26,8.87c-2.67-.64-4.75.62-7.54,1.76a16.54,16.54,0,0,0-.66,4.53l-1.91,1.47-3.81-5L40,13.49,41.14,15l-2.37,1.81,1.33,1.73-2.38,1.82L42,25.93l2.37-1.82-2.12-2.77,3.45,4.5L48,24l-3.45-4.5,4.63,6,2.37-1.82-3.81-5,1.89-1.45c6.54,8.11.38,9.08,14.08,12.82,6.24,10,7,4.91,15.62,9.56-.16,8.73,9.32,15,9.15,22.33-.37,2.37-1.33,4.47-1.07,6.89a9.52,9.52,0,0,0-1.57,6.92c-2.69,6-7.68,10.5-10.29,16.58-1.52,4.23-1.27,8.62-2.28,12.93-2,4.93-4.48,9.57-6.26,14.58-2.46,7.46-1.76,24.4-8.92,28.27-.1.49-.21,1-.31,1.45a5.71,5.71,0,0,0,1.34,1.95,20.4,20.4,0,0,0,6.17-1.17c.22-2,1.7-3.3,3-4.75,1-.61,1.87-1,2.23-2.24-.26-1.56-.75-3-1-4.6,1.12-4.45,3.55-8.56,5.73-12.57,3.52-1.6,4.21-3.37,4.78-7.15.29-5.06-1-7.11,3.32-10.94,1.79-2.74,5.18-3.65,7.76-5.52,4.12-2.43,6.44-6.22,8.31-10.51l0,0c1.32,3.72,2.29,7.58,6,9.69,2.19,4.43,6.12,9.43,3,14.36-2.73,6.48-3,8.78-.42,15.34-.12,3.83.3,8.27-.19,11.92-.21,2.07-1.34,3.89-1.32,6l1.41,1.12c4.31.42,8.79-.3,13,.71l.48-.46c.06-1.36,0-2.38-1.11-3a10,10,0,0,1-4-1.1c-.69-.88-1.38-1.77-2-2.68-1.4-5.89,2.18-10.91,3.61-16.52,1.28-4.12,1.22-8.58,1.13-12.86.86-3.11.23-6.28,1-9.39,3.12-5.42,2.44-12.16.48-17.94-2.84-5.57-4.58-11.79-7.09-17.44,1.3-1.61,1.36-3.53,1.46-5.52.09-9.48,8.63-15.28,9.58-24.53,1.55-.74,3.83-.93,5.62-1.28,3.73-3.08,6.08-7.34,8.79-11.29a12.12,12.12,0,0,0,2.1-4.22A37.87,37.87,0,0,0,138.62,19.83Z"/><rect class="cls-2" x="63.75" y="0.19" width="2.99" height="6.98" transform="translate(11.24 40.47) rotate(-37.49)"/><path class="cls-2" d="M0,165.42H3.53a9.51,9.51,0,0,1,2.54.26,2.5,2.5,0,0,1,1.39,1.06A4.68,4.68,0,0,1,8,169.3,2.74,2.74,0,0,1,7.62,171a2.64,2.64,0,0,1-1.48.72,2.72,2.72,0,0,1,1.67.92,3.59,3.59,0,0,1,.43,2v1.26a5.08,5.08,0,0,1-.31,2,1.74,1.74,0,0,1-1,.91A10.45,10.45,0,0,1,4.1,179H0Zm3.54,2.33v3h.35c.35,0,.57-.08.67-.26a4.34,4.34,0,0,0,.14-1.46,2.34,2.34,0,0,0-.12-.9.53.53,0,0,0-.3-.32A2.67,2.67,0,0,0,3.54,167.75Zm0,5.15v3.81a1.55,1.55,0,0,0,1-.24,1.7,1.7,0,0,0,.2-1v-1.27a1.84,1.84,0,0,0-.18-1.06A1.74,1.74,0,0,0,3.54,172.9Z"/><path class="cls-2" d="M17.61,173.39c0,1.37,0,2.34-.1,2.91a3.2,3.2,0,0,1-.61,1.56A3.25,3.25,0,0,1,15.53,179a5.05,5.05,0,0,1-2,.38,5.07,5.07,0,0,1-2-.36,3.27,3.27,0,0,1-1.4-1.07,3.23,3.23,0,0,1-.64-1.56c-.06-.56-.1-1.54-.1-3v-2.33c0-1.36,0-2.33.1-2.9a3.2,3.2,0,0,1,.61-1.56,3.31,3.31,0,0,1,1.37-1.09,5.05,5.05,0,0,1,2-.38,5.07,5.07,0,0,1,2,.36,3.36,3.36,0,0,1,1.41,1.07,3.31,3.31,0,0,1,.63,1.56c.06.56.1,1.54.1,2.94Zm-3.54-4.47A4.23,4.23,0,0,0,14,167.7a.42.42,0,0,0-.43-.26.49.49,0,0,0-.43.21,3,3,0,0,0-.15,1.27v6.36a6.38,6.38,0,0,0,.1,1.46.43.43,0,0,0,.45.28.43.43,0,0,0,.46-.32,6.34,6.34,0,0,0,.11-1.52Z"/><path class="cls-2" d="M18.93,165.42h2.65a16.23,16.23,0,0,1,3.47.24,2.58,2.58,0,0,1,1.37.77,2.42,2.42,0,0,1,.59,1.2,17.69,17.69,0,0,1,.12,2.59V175a11.55,11.55,0,0,1-.17,2.46,1.89,1.89,0,0,1-.6,1,2.42,2.42,0,0,1-1.06.49,9.84,9.84,0,0,1-1.91.14H18.93Zm3.54,2.33v9c.51,0,.82-.1.94-.31a4.4,4.4,0,0,0,.18-1.67v-5.29a6.83,6.83,0,0,0-.06-1.18.56.56,0,0,0-.27-.39A1.76,1.76,0,0,0,22.47,167.75Z"/><path class="cls-2" d="M32,165.42V179H28.45V165.42Z"/><path class="cls-2" d="M37.48,171.08v2.34H33v-2.34Z"/><path class="cls-2" d="M38.48,165.42H42a9.51,9.51,0,0,1,2.54.26,2.5,2.5,0,0,1,1.39,1.06,4.77,4.77,0,0,1,.53,2.56A2.82,2.82,0,0,1,46.1,171a2.68,2.68,0,0,1-1.48.72,2.66,2.66,0,0,1,1.66.92,3.5,3.5,0,0,1,.44,2v1.26a5.08,5.08,0,0,1-.31,2,1.74,1.74,0,0,1-1,.91,10.48,10.48,0,0,1-2.83.24H38.48ZM42,167.75v3h.35c.35,0,.57-.08.67-.26a4.34,4.34,0,0,0,.14-1.46,2.34,2.34,0,0,0-.12-.9.56.56,0,0,0-.3-.32A2.73,2.73,0,0,0,42,167.75Zm0,5.15v3.81a1.49,1.49,0,0,0,.95-.24,1.61,1.61,0,0,0,.21-1v-1.27a1.84,1.84,0,0,0-.18-1.06A1.74,1.74,0,0,0,42,172.9Z"/><path class="cls-2" d="M51.53,165.42V179H48V165.42Z"/><path class="cls-2" d="M56.5,165.42v10.89h2.15V179H53V165.42Z"/><path class="cls-2" d="M59.51,165.42h2.65a16.17,16.17,0,0,1,3.47.24,2.58,2.58,0,0,1,1.37.77,2.42,2.42,0,0,1,.59,1.2,17.69,17.69,0,0,1,.12,2.59V175a11.55,11.55,0,0,1-.17,2.46,1.89,1.89,0,0,1-.6,1,2.42,2.42,0,0,1-1.06.49A9.79,9.79,0,0,1,64,179H59.51Zm3.54,2.33v9c.51,0,.82-.1.94-.31a4.4,4.4,0,0,0,.18-1.67v-5.29a6.83,6.83,0,0,0-.06-1.18.56.56,0,0,0-.27-.39A1.76,1.76,0,0,0,63.05,167.75Z"/><path class="cls-2" d="M72.57,165.42V179H69V165.42Z"/><path class="cls-2" d="M81.9,165.42V179H78.8L77,172.85V179H74V165.42h3l2,6.13v-6.13Z"/><path class="cls-2" d="M91.45,170.43H87.91V169.2a6.69,6.69,0,0,0-.1-1.47.46.46,0,0,0-.48-.29.45.45,0,0,0-.45.25,4.06,4.06,0,0,0-.12,1.3v6.53a3.84,3.84,0,0,0,.12,1.21.47.47,0,0,0,.47.29.52.52,0,0,0,.53-.33,3.89,3.89,0,0,0,.14-1.28V173.8H87.3v-2.07h4.15V179H89.22l-.32-1A2.48,2.48,0,0,1,88,179a2.56,2.56,0,0,1-1.3.32,3.39,3.39,0,0,1-1.67-.44,3.16,3.16,0,0,1-1.18-1.07,3.44,3.44,0,0,1-.51-1.34,17.62,17.62,0,0,1-.1-2.11v-4.05a13.53,13.53,0,0,1,.21-2.83,2.93,2.93,0,0,1,1.21-1.62,4.22,4.22,0,0,1,2.58-.74,4.83,4.83,0,0,1,2.58.64,3.05,3.05,0,0,1,1.34,1.52,8,8,0,0,1,.31,2.56Z"/><path class="cls-2" d="M99.4,165.42V179H95.86V165.42Z"/><path class="cls-2" d="M103.86,165.42h6v2.73H107.4v2.58h2.19v2.59H107.4V179h-3.54Z"/><path class="cls-2" d="M114.26,165.42V179h-3.55V165.42Z"/><path class="cls-2" d="M122.81,165.42v2.73h-2.1V179h-3.54V168.15h-2.1v-2.73Z"/><path class="cls-2" d="M131.53,165.42V179h-3.11l-1.84-6.19V179h-3V165.42h3l2,6.13v-6.13Z"/><path class="cls-2" d="M133,165.42h5.9v2.73h-2.36v2.58h2.21v2.59h-2.21v3h2.6V179H133Z"/><path class="cls-2" d="M147.61,169.54h-3.29v-1a2.08,2.08,0,0,0-.12-.9.47.47,0,0,0-.42-.19.55.55,0,0,0-.49.26,1.51,1.51,0,0,0-.16.79,2.29,2.29,0,0,0,.18,1,2.65,2.65,0,0,0,1,.83,10.15,10.15,0,0,1,3,2.3,5.29,5.29,0,0,1,.62,2.91,5,5,0,0,1-.35,2.14,2.62,2.62,0,0,1-1.31,1.16,5.23,5.23,0,0,1-2.27.47,5.07,5.07,0,0,1-2.43-.54,2.68,2.68,0,0,1-1.32-1.37,7.3,7.3,0,0,1-.31-2.37v-.89h3.29v1.66a2.17,2.17,0,0,0,.14,1,.53.53,0,0,0,.49.22.58.58,0,0,0,.53-.28,1.62,1.62,0,0,0,.17-.82,2.52,2.52,0,0,0-.33-1.57,10,10,0,0,0-1.65-1.24,14.84,14.84,0,0,1-1.75-1.27,3,3,0,0,1-.72-1.09,5,5,0,0,1-.28-1.79,5.07,5.07,0,0,1,.4-2.29,2.72,2.72,0,0,1,1.29-1.13,5.23,5.23,0,0,1,2.16-.41,5.57,5.57,0,0,1,2.35.45,2.47,2.47,0,0,1,1.29,1.12,6,6,0,0,1,.31,2.3Z"/><path class="cls-2" d="M159.56,169.54h-3.29v-1a1.89,1.89,0,0,0-.13-.9.45.45,0,0,0-.42-.19.54.54,0,0,0-.48.26,1.5,1.5,0,0,0-.17.79,2.14,2.14,0,0,0,.19,1,2.56,2.56,0,0,0,1,.83,10.3,10.3,0,0,1,3,2.3,5.3,5.3,0,0,1,.61,2.91,5,5,0,0,1-.34,2.14,2.69,2.69,0,0,1-1.32,1.16,5.2,5.2,0,0,1-2.27.47,5,5,0,0,1-2.42-.54,2.68,2.68,0,0,1-1.32-1.37,7,7,0,0,1-.31-2.37v-.89h3.29v1.66a2,2,0,0,0,.14,1,.52.52,0,0,0,.49.22.56.56,0,0,0,.52-.28,1.51,1.51,0,0,0,.18-.82,2.52,2.52,0,0,0-.33-1.57,10.73,10.73,0,0,0-1.66-1.24,16.87,16.87,0,0,1-1.75-1.27,3,3,0,0,1-.71-1.09,4.8,4.8,0,0,1-.28-1.79,4.94,4.94,0,0,1,.4-2.29,2.68,2.68,0,0,1,1.29-1.13,5.15,5.15,0,0,1,2.15-.41,5.53,5.53,0,0,1,2.35.45,2.47,2.47,0,0,1,1.29,1.12,5.93,5.93,0,0,1,.32,2.3Z"/><path class="cls-2" d="M167.08,165.42l2,13.62h-3.62l-.19-2.45H164l-.21,2.45h-3.66L162,165.42Zm-1.87,8.76c-.18-1.55-.36-3.45-.54-5.72q-.54,3.9-.68,5.72Z"/><path class="cls-2" d="M177.75,165.42,176,179h-5.38l-2-13.62h3.74c.43,3.75.74,6.93.93,9.52.18-2.62.38-4.95.58-7l.25-2.53Z"/><path class="cls-2" d="M178.35,165.42h5.91v2.73h-2.37v2.58h2.21v2.59h-2.21v3h2.6V179h-6.14Z"/><path class="cls-2" d="M191.43,165.42v2.73l-2.64,8.16h2.64V179H184.9v-2l2.73-8.91h-2.41v-2.73Z"/><path class="cls-2" d="M32.61,186.09h2.51a18.81,18.81,0,0,1,3.39.2,2.35,2.35,0,0,1,1.45,1,4.49,4.49,0,0,1,.56,2.53,3.92,3.92,0,0,1-.4,2.14,2.11,2.11,0,0,1-1.55.66,2.63,2.63,0,0,1,1.41.69,2.15,2.15,0,0,1,.45.81,12.34,12.34,0,0,1,.09,2v3.59H37.23v-4.52a3.27,3.27,0,0,0-.17-1.36c-.12-.17-.42-.26-.91-.26v6.14H32.61Zm3.54,2.33v3a1.57,1.57,0,0,0,.84-.16c.16-.11.24-.46.24-1.07v-.74a1.14,1.14,0,0,0-.23-.85A1.3,1.3,0,0,0,36.15,188.42Z"/><path class="cls-2" d="M41.89,186.09h5.9v2.73H45.43v2.58h2.21V194H45.43v3H48v2.72H41.89Z"/><path class="cls-2" d="M49.05,186.09h3.56a8.43,8.43,0,0,1,2.23.23A2.44,2.44,0,0,1,56,187a2.2,2.2,0,0,1,.53,1,9.39,9.39,0,0,1,.14,1.89v1.18a4.92,4.92,0,0,1-.27,1.9,1.83,1.83,0,0,1-1,.92,4.74,4.74,0,0,1-1.88.32h-.95v5.48H49.05Zm3.54,2.33v3.47h.26a.82.82,0,0,0,.68-.24,1.82,1.82,0,0,0,.19-1v-1.12a.9.9,0,0,0-1.13-1.12Z"/><path class="cls-2" d="M65.75,186.09v9.11a17.11,17.11,0,0,1-.1,2.17,3,3,0,0,1-.6,1.29,3.13,3.13,0,0,1-1.31,1,4.86,4.86,0,0,1-1.91.34,5.4,5.4,0,0,1-2.16-.4,3.14,3.14,0,0,1-1.39-1.06,2.91,2.91,0,0,1-.55-1.36c-.06-.48-.08-1.49-.08-3v-8.06h3.54v10.22a4.37,4.37,0,0,0,.09,1.14.4.4,0,0,0,.39.25.43.43,0,0,0,.44-.28,5.43,5.43,0,0,0,.09-1.29v-10Z"/><path class="cls-2" d="M67.12,186.09h3.53a9,9,0,0,1,2.54.27,2.49,2.49,0,0,1,1.39,1,4.77,4.77,0,0,1,.53,2.56,2.71,2.71,0,0,1-.38,1.66,2.55,2.55,0,0,1-1.47.73,2.57,2.57,0,0,1,1.66.92,3.48,3.48,0,0,1,.44,2v1.27a5,5,0,0,1-.31,2,1.71,1.71,0,0,1-1,.91,10.48,10.48,0,0,1-2.83.24H67.12Zm3.54,2.33v3H71c.35,0,.57-.08.67-.25a4.38,4.38,0,0,0,.14-1.47,2.37,2.37,0,0,0-.12-.9.59.59,0,0,0-.3-.32A3.22,3.22,0,0,0,70.66,188.42Zm0,5.15v3.81a1.44,1.44,0,0,0,1-.23,1.64,1.64,0,0,0,.21-1v-1.27c0-.58-.06-.93-.19-1.06A1.67,1.67,0,0,0,70.66,193.57Z"/><path class="cls-2" d="M80.17,186.09V197h2.16v2.72h-5.7V186.09Z"/><path class="cls-2" d="M86.73,186.09v13.62H83.18V186.09Z"/><path class="cls-2" d="M96.59,186.09l-2,6.15,2.22,7.47H93.12l-1.43-5.83v5.83H88.15V186.09h3.54v5.3l1.58-5.3Z"/><path class="cls-2" d="M97.39,186.09h5.91v2.73h-2.37v2.58h2.22V194h-2.22v3h2.6v2.72H97.39Z"/><path class="cls-2" d="M115.09,190.22H111.8v-1a2.08,2.08,0,0,0-.12-.9.48.48,0,0,0-.42-.2.55.55,0,0,0-.49.26,1.55,1.55,0,0,0-.16.8,2.27,2.27,0,0,0,.18,1,2.74,2.74,0,0,0,1,.84,10,10,0,0,1,3,2.3,7,7,0,0,1,.28,5,2.68,2.68,0,0,1-1.32,1.15,5.23,5.23,0,0,1-2.27.47,5.07,5.07,0,0,1-2.43-.54,2.58,2.58,0,0,1-1.31-1.37,6.89,6.89,0,0,1-.32-2.36v-.9h3.29v1.66a2.26,2.26,0,0,0,.14,1,.55.55,0,0,0,.49.22.6.6,0,0,0,.53-.28,1.66,1.66,0,0,0,.17-.83,2.54,2.54,0,0,0-.33-1.57,10,10,0,0,0-1.65-1.24,14.55,14.55,0,0,1-1.75-1.27,2.75,2.75,0,0,1-.71-1.09,4.77,4.77,0,0,1-.29-1.78,5,5,0,0,1,.4-2.29,2.7,2.7,0,0,1,1.3-1.13,5,5,0,0,1,2.15-.41,5.73,5.73,0,0,1,2.35.44,2.49,2.49,0,0,1,1.29,1.13,6,6,0,0,1,.31,2.3Z"/><path class="cls-2" d="M116.5,186.09H119a18.86,18.86,0,0,1,3.4.2,2.37,2.37,0,0,1,1.45,1,4.49,4.49,0,0,1,.56,2.53A4,4,0,0,1,124,192a2.11,2.11,0,0,1-1.56.66,2.67,2.67,0,0,1,1.42.69,2.15,2.15,0,0,1,.45.81,12.34,12.34,0,0,1,.09,2v3.59h-3.29v-4.52a3,3,0,0,0-.18-1.36c-.11-.17-.41-.26-.9-.26v6.14H116.5Zm3.54,2.33v3a1.57,1.57,0,0,0,.84-.16c.16-.11.24-.46.24-1.07v-.74a1.09,1.09,0,0,0-.24-.85A1.25,1.25,0,0,0,120,188.42Z"/><path class="cls-2" d="M125.78,186.09h3.56a8.43,8.43,0,0,1,2.23.23,2.44,2.44,0,0,1,1.17.66,2.2,2.2,0,0,1,.53,1,9.39,9.39,0,0,1,.14,1.89v1.18a4.92,4.92,0,0,1-.27,1.9,1.83,1.83,0,0,1-1,.92,4.74,4.74,0,0,1-1.88.32h-1v5.48h-3.54Zm3.54,2.33v3.47h.26a.84.84,0,0,0,.68-.24,1.82,1.82,0,0,0,.19-1v-1.12a.9.9,0,0,0-1.13-1.12Z"/><path class="cls-2" d="M141.93,190.22h-3.29v-1a1.89,1.89,0,0,0-.13-.9.46.46,0,0,0-.42-.2.54.54,0,0,0-.48.26,1.54,1.54,0,0,0-.17.8,2.25,2.25,0,0,0,.19,1,2.74,2.74,0,0,0,1,.84,10,10,0,0,1,3,2.3,5.28,5.28,0,0,1,.61,2.9,5.07,5.07,0,0,1-.34,2.15,2.65,2.65,0,0,1-1.31,1.15,5.27,5.27,0,0,1-2.28.47,5.06,5.06,0,0,1-2.42-.54,2.64,2.64,0,0,1-1.32-1.37,6.93,6.93,0,0,1-.31-2.36v-.9h3.29v1.66a2.11,2.11,0,0,0,.14,1,.54.54,0,0,0,.49.22.58.58,0,0,0,.52-.28,1.55,1.55,0,0,0,.18-.83,2.54,2.54,0,0,0-.33-1.57,10.23,10.23,0,0,0-1.66-1.24,15.46,15.46,0,0,1-1.75-1.27,3,3,0,0,1-.71-1.09,4.78,4.78,0,0,1-.28-1.78,4.88,4.88,0,0,1,.4-2.29,2.72,2.72,0,0,1,1.29-1.13,5,5,0,0,1,2.15-.41,5.78,5.78,0,0,1,2.36.44,2.5,2.5,0,0,1,1.28,1.13,5.93,5.93,0,0,1,.32,2.3Z"/><path class="cls-2" d="M151.77,186.09l-2,6.15,2.23,7.47h-3.66l-1.44-5.83v5.83h-3.54V186.09h3.54v5.3l1.58-5.3Z"/><path class="cls-2" d="M152.58,186.09h5.9v2.73h-2.36v2.58h2.21V194h-2.21v3h2.6v2.72h-6.14Z"/></g></g></svg>